<?xml version="1.0" ?>
<mxfile host="65bd71144e">
	<diagram id="RFndyrCF2-3MIdXtw8gX" name="Page-1">
		<mxGraphModel dx="422" dy="816" grid="1" gridSize="10" guides="1" tooltips="1" connect="1" arrows="1" fold="1" page="1" pageScale="1" pageWidth="850" pageHeight="1100" math="0" shadow="0">
			<root>
				<mxCell id="0"/>
				<mxCell id="1" parent="0"/>
				<mxCell id="4932164176" value="&lt;b&gt;Module&lt;/b&gt;" style="whiteSpace=wrap;html=1;rounded=1;fillColor=#CC99FF;strokeColor=#000000" parent="1" vertex="1">
					<mxGeometry x="593.98" y="0.0" width="120" height="60" as="geometry"/>
				</mxCell>
				<mxCell id="4932162832" value="&lt;b&gt;FunctionDef&lt;/b&gt;&lt;br&gt;name: main" style="whiteSpace=wrap;html=1;rounded=1;fillColor=#66B2FF;strokeColor=#000000" parent="1" vertex="1">
					<mxGeometry x="593.98" y="93.60000000000001" width="120" height="60" as="geometry"/>
				</mxCell>
				<mxCell id="4932163120" value="&lt;b&gt;arguments&lt;/b&gt;" style="whiteSpace=wrap;html=1;rounded=1;fillColor=#E6E6E6;strokeColor=#000000" parent="1" vertex="1">
					<mxGeometry x="320.98" y="187.20000000000002" width="120" height="60" as="geometry"/>
				</mxCell>
				<mxCell id="4932163168" value="&lt;b&gt;FunctionDef&lt;/b&gt;&lt;br&gt;name: plus" style="whiteSpace=wrap;html=1;rounded=1;fillColor=#66B2FF;strokeColor=#000000" parent="1" vertex="1">
					<mxGeometry x="452.98" y="187.20000000000002" width="120" height="60" as="geometry"/>
				</mxCell>
				<mxCell id="4932163216" value="&lt;b&gt;arguments&lt;/b&gt;" style="whiteSpace=wrap;html=1;rounded=1;fillColor=#E6E6E6;strokeColor=#000000" parent="1" vertex="1">
					<mxGeometry x="188.98" y="280.8" width="120" height="60" as="geometry"/>
				</mxCell>
				<mxCell id="4932168208" value="&lt;b&gt;arg&lt;/b&gt;&lt;br&gt;arg: a" style="whiteSpace=wrap;html=1;rounded=1;fillColor=#E6E6E6;strokeColor=#000000" parent="1" vertex="1">
					<mxGeometry x="56.981" y="374.40000000000003" width="120" height="60" as="geometry"/>
				</mxCell>
				<mxCell id="4932167920" value="&lt;b&gt;arg&lt;/b&gt;&lt;br&gt;arg: b" style="whiteSpace=wrap;html=1;rounded=1;fillColor=#E6E6E6;strokeColor=#000000" parent="1" vertex="1">
					<mxGeometry x="188.98" y="374.40000000000003" width="120" height="60" as="geometry"/>
				</mxCell>
				<mxCell id="4932171424" value="&lt;b&gt;Return&lt;/b&gt;" style="whiteSpace=wrap;html=1;rounded=1;fillColor=#D6FFC9;strokeColor=#000000" parent="1" vertex="1">
					<mxGeometry x="381.98" y="280.8" width="120" height="60" as="geometry"/>
				</mxCell>
				<mxCell id="5155009872" value="&lt;b&gt;BinOp&lt;/b&gt;" style="whiteSpace=wrap;html=1;rounded=1;fillColor=#CCCCFF;strokeColor=#000000" parent="1" vertex="1">
					<mxGeometry x="320.98" y="374.40000000000003" width="120" height="60" as="geometry"/>
				</mxCell>
				<mxCell id="5155008000" value="&lt;b&gt;Name&lt;/b&gt;&lt;br&gt;id: a&lt;br&gt;ctx: Load" style="whiteSpace=wrap;html=1;rounded=1;fillColor=#CCE5FF;strokeColor=#000000" parent="1" vertex="1">
					<mxGeometry x="122.98" y="468.0" width="120" height="60" as="geometry"/>
				</mxCell>
				<mxCell id="4376102320" value="&lt;b&gt;Add&lt;/b&gt;" style="whiteSpace=wrap;html=1;rounded=1;fillColor=#E6E6E6;strokeColor=#000000" parent="1" vertex="1">
					<mxGeometry x="386.98" y="468.0" width="120" height="60" as="geometry"/>
				</mxCell>
				<mxCell id="5215593296" value="&lt;b&gt;Name&lt;/b&gt;&lt;br&gt;id: b&lt;br&gt;ctx: Load" style="whiteSpace=wrap;html=1;rounded=1;fillColor=#CCE5FF;strokeColor=#000000" parent="1" vertex="1">
					<mxGeometry x="254.98" y="468.0" width="120" height="60" as="geometry"/>
				</mxCell>
				<mxCell id="5215593248" value="&lt;b&gt;Assign&lt;/b&gt;" style="whiteSpace=wrap;html=1;rounded=1;fillColor=#D6FFC9;strokeColor=#000000" parent="1" vertex="1">
					<mxGeometry x="593.98" y="187.20000000000002" width="120" height="60" as="geometry"/>
				</mxCell>
				<mxCell id="5215593200" value="&lt;b&gt;Tuple&lt;/b&gt;&lt;br&gt;ctx: Store" style="whiteSpace=wrap;html=1;rounded=1;fillColor=#FFD9B3;strokeColor=#000000" parent="1" vertex="1">
					<mxGeometry x="749.98" y="280.8" width="120" height="60" as="geometry"/>
				</mxCell>
				<mxCell id="5215593152" value="&lt;b&gt;Name&lt;/b&gt;&lt;br&gt;id: x&lt;br&gt;ctx: Store" style="whiteSpace=wrap;html=1;rounded=1;fillColor=#CCE5FF;strokeColor=#000000" parent="1" vertex="1">
					<mxGeometry x="792.98" y="374.40000000000003" width="120" height="60" as="geometry"/>
				</mxCell>
				<mxCell id="5215593104" value="&lt;b&gt;Name&lt;/b&gt;&lt;br&gt;id: y&lt;br&gt;ctx: Store" style="whiteSpace=wrap;html=1;rounded=1;fillColor=#CCE5FF;strokeColor=#000000" parent="1" vertex="1">
					<mxGeometry x="924.98" y="374.40000000000003" width="120" height="60" as="geometry"/>
				</mxCell>
				<mxCell id="5215593056" value="&lt;b&gt;Tuple&lt;/b&gt;&lt;br&gt;ctx: Load" style="whiteSpace=wrap;html=1;rounded=1;fillColor=#FFD9B3;strokeColor=#000000" parent="1" vertex="1">
					<mxGeometry x="532.98" y="280.8" width="120" height="60" as="geometry"/>
				</mxCell>
				<mxCell id="5215593008" value="&lt;b&gt;Constant&lt;/b&gt;&lt;br&gt;value: 1" style="whiteSpace=wrap;html=1;rounded=1;fillColor=#FFF2CC;strokeColor=#000000" parent="1" vertex="1">
					<mxGeometry x="490.98" y="374.40000000000003" width="120" height="60" as="geometry"/>
				</mxCell>
				<mxCell id="5215592960" value="&lt;b&gt;Constant&lt;/b&gt;&lt;br&gt;value: 2" style="whiteSpace=wrap;html=1;rounded=1;fillColor=#FFF2CC;strokeColor=#000000" parent="1" vertex="1">
					<mxGeometry x="622.98" y="374.40000000000003" width="120" height="60" as="geometry"/>
				</mxCell>
				<mxCell id="5215592912" value="&lt;b&gt;Assign&lt;/b&gt;" style="whiteSpace=wrap;html=1;rounded=1;fillColor=#D6FFC9;strokeColor=#000000" parent="1" vertex="1">
					<mxGeometry x="1057.0" y="280.8" width="120" height="60" as="geometry"/>
				</mxCell>
				<mxCell id="5215592864" value="&lt;b&gt;Name&lt;/b&gt;&lt;br&gt;id: res&lt;br&gt;ctx: Store" style="whiteSpace=wrap;html=1;rounded=1;fillColor=#CCE5FF;strokeColor=#000000" parent="1" vertex="1">
					<mxGeometry x="1057.0" y="374.40000000000003" width="120" height="60" as="geometry"/>
				</mxCell>
				<mxCell id="5215592816" value="&lt;b&gt;Call&lt;/b&gt;" style="whiteSpace=wrap;html=1;rounded=1;fillColor=#FFCCFF;strokeColor=#000000" parent="1" vertex="1">
					<mxGeometry x="1189.0" y="374.40000000000003" width="120" height="60" as="geometry"/>
				</mxCell>
				<mxCell id="5215592768" value="&lt;b&gt;Name&lt;/b&gt;&lt;br&gt;id: plus&lt;br&gt;ctx: Load" style="whiteSpace=wrap;html=1;rounded=1;fillColor=#CCE5FF;strokeColor=#000000" parent="1" vertex="1">
					<mxGeometry x="924.98" y="468.0" width="120" height="60" as="geometry"/>
				</mxCell>
				<mxCell id="5215592720" value="&lt;b&gt;Name&lt;/b&gt;&lt;br&gt;id: x&lt;br&gt;ctx: Load" style="whiteSpace=wrap;html=1;rounded=1;fillColor=#CCE5FF;strokeColor=#000000" parent="1" vertex="1">
					<mxGeometry x="1057.0" y="468.0" width="120" height="60" as="geometry"/>
				</mxCell>
				<mxCell id="5215592672" value="&lt;b&gt;Name&lt;/b&gt;&lt;br&gt;id: y&lt;br&gt;ctx: Load" style="whiteSpace=wrap;html=1;rounded=1;fillColor=#CCE5FF;strokeColor=#000000" parent="1" vertex="1">
					<mxGeometry x="1189.0" y="468.0" width="120" height="60" as="geometry"/>
				</mxCell>
				<mxCell id="5215592624" value="&lt;b&gt;Return&lt;/b&gt;" style="whiteSpace=wrap;html=1;rounded=1;fillColor=#D6FFC9;strokeColor=#000000" parent="1" vertex="1">
					<mxGeometry x="1169.0" y="187.20000000000002" width="120" height="60" as="geometry"/>
				</mxCell>
				<mxCell id="5215592576" value="&lt;b&gt;Name&lt;/b&gt;&lt;br&gt;id: res&lt;br&gt;ctx: Load" style="whiteSpace=wrap;html=1;rounded=1;fillColor=#CCE5FF;strokeColor=#000000" parent="1" vertex="1">
					<mxGeometry x="1231.0" y="280.8" width="120" height="60" as="geometry"/>
				</mxCell>
				<mxCell id="4932164176_4932162832" value="['body', 0]" style="endArrow=classic;html=1;strokeColor=#000000" parent="1" source="4932164176" target="4932162832" edge="1">
					<mxGeometry width="50" height="50" relative="1" as="geometry">
						<mxPoint x="400" y="440" as="sourcePoint"/>
						<mxPoint x="450" y="390" as="targetPoint"/>
					</mxGeometry>
				</mxCell>
				<mxCell id="4932162832_4932163120" value="['args']" style="endArrow=classic;html=1;strokeColor=#000000" parent="1" source="4932162832" target="4932163120" edge="1">
					<mxGeometry width="50" height="50" relative="1" as="geometry">
						<mxPoint x="400" y="440" as="sourcePoint"/>
						<mxPoint x="450" y="390" as="targetPoint"/>
					</mxGeometry>
				</mxCell>
				<mxCell id="4932162832_4932163168" value="['body', 0]" style="endArrow=classic;html=1;strokeColor=#000000" parent="1" source="4932162832" target="4932163168" edge="1">
					<mxGeometry width="50" height="50" relative="1" as="geometry">
						<mxPoint x="400" y="440" as="sourcePoint"/>
						<mxPoint x="450" y="390" as="targetPoint"/>
					</mxGeometry>
				</mxCell>
				<mxCell id="4932163168_4932163216" value="['args']" style="endArrow=classic;html=1;strokeColor=#000000" parent="1" source="4932163168" target="4932163216" edge="1">
					<mxGeometry width="50" height="50" relative="1" as="geometry">
						<mxPoint x="400" y="440" as="sourcePoint"/>
						<mxPoint x="450" y="390" as="targetPoint"/>
					</mxGeometry>
				</mxCell>
				<mxCell id="4932163216_4932168208" value="['args', 0]" style="endArrow=classic;html=1;strokeColor=#000000" parent="1" source="4932163216" target="4932168208" edge="1">
					<mxGeometry width="50" height="50" relative="1" as="geometry">
						<mxPoint x="400" y="440" as="sourcePoint"/>
						<mxPoint x="450" y="390" as="targetPoint"/>
					</mxGeometry>
				</mxCell>
				<mxCell id="4932163216_4932167920" value="['args', 1]" style="endArrow=classic;html=1;strokeColor=#000000" parent="1" source="4932163216" target="4932167920" edge="1">
					<mxGeometry width="50" height="50" relative="1" as="geometry">
						<mxPoint x="400" y="440" as="sourcePoint"/>
						<mxPoint x="450" y="390" as="targetPoint"/>
					</mxGeometry>
				</mxCell>
				<mxCell id="4932163168_4932171424" value="['body', 0]" style="endArrow=classic;html=1;strokeColor=#000000" parent="1" source="4932163168" target="4932171424" edge="1">
					<mxGeometry width="50" height="50" relative="1" as="geometry">
						<mxPoint x="400" y="440" as="sourcePoint"/>
						<mxPoint x="450" y="390" as="targetPoint"/>
					</mxGeometry>
				</mxCell>
				<mxCell id="4932171424_5155009872" value="['value']" style="endArrow=classic;html=1;strokeColor=#000000" parent="1" source="4932171424" target="5155009872" edge="1">
					<mxGeometry width="50" height="50" relative="1" as="geometry">
						<mxPoint x="400" y="440" as="sourcePoint"/>
						<mxPoint x="450" y="390" as="targetPoint"/>
					</mxGeometry>
				</mxCell>
				<mxCell id="5155009872_5155008000" value="['left']" style="endArrow=classic;html=1;strokeColor=#000000" parent="1" source="5155009872" target="5155008000" edge="1">
					<mxGeometry width="50" height="50" relative="1" as="geometry">
						<mxPoint x="400" y="440" as="sourcePoint"/>
						<mxPoint x="450" y="390" as="targetPoint"/>
					</mxGeometry>
				</mxCell>
				<mxCell id="5155009872_4376102320" value="['op']" style="endArrow=classic;html=1;strokeColor=#000000" parent="1" source="5155009872" target="4376102320" edge="1">
					<mxGeometry width="50" height="50" relative="1" as="geometry">
						<mxPoint x="400" y="440" as="sourcePoint"/>
						<mxPoint x="450" y="390" as="targetPoint"/>
					</mxGeometry>
				</mxCell>
				<mxCell id="5155009872_5215593296" value="['right']" style="endArrow=classic;html=1;strokeColor=#000000" parent="1" source="5155009872" target="5215593296" edge="1">
					<mxGeometry width="50" height="50" relative="1" as="geometry">
						<mxPoint x="400" y="440" as="sourcePoint"/>
						<mxPoint x="450" y="390" as="targetPoint"/>
					</mxGeometry>
				</mxCell>
				<mxCell id="4932162832_5215593248" value="['body', 1]" style="endArrow=classic;html=1;strokeColor=#000000" parent="1" source="4932162832" target="5215593248" edge="1">
					<mxGeometry width="50" height="50" relative="1" as="geometry">
						<mxPoint x="400" y="440" as="sourcePoint"/>
						<mxPoint x="450" y="390" as="targetPoint"/>
					</mxGeometry>
				</mxCell>
				<mxCell id="5215593248_5215593200" value="['targets', 0]" style="endArrow=classic;html=1;strokeColor=#000000" parent="1" source="5215593248" target="5215593200" edge="1">
					<mxGeometry width="50" height="50" relative="1" as="geometry">
						<mxPoint x="400" y="440" as="sourcePoint"/>
						<mxPoint x="450" y="390" as="targetPoint"/>
					</mxGeometry>
				</mxCell>
				<mxCell id="5215593200_5215593152" value="['elts', 0]" style="endArrow=classic;html=1;strokeColor=#000000" parent="1" source="5215593200" target="5215593152" edge="1">
					<mxGeometry width="50" height="50" relative="1" as="geometry">
						<mxPoint x="400" y="440" as="sourcePoint"/>
						<mxPoint x="450" y="390" as="targetPoint"/>
					</mxGeometry>
				</mxCell>
				<mxCell id="5215593200_5215593104" value="['elts', 1]" style="endArrow=classic;html=1;strokeColor=#000000" parent="1" source="5215593200" target="5215593104" edge="1">
					<mxGeometry width="50" height="50" relative="1" as="geometry">
						<mxPoint x="400" y="440" as="sourcePoint"/>
						<mxPoint x="450" y="390" as="targetPoint"/>
					</mxGeometry>
				</mxCell>
				<mxCell id="5215593248_5215593056" value="['value']" style="endArrow=classic;html=1;strokeColor=#000000" parent="1" source="5215593248" target="5215593056" edge="1">
					<mxGeometry width="50" height="50" relative="1" as="geometry">
						<mxPoint x="400" y="440" as="sourcePoint"/>
						<mxPoint x="450" y="390" as="targetPoint"/>
					</mxGeometry>
				</mxCell>
				<mxCell id="5215593056_5215593008" value="['elts', 0]" style="endArrow=classic;html=1;strokeColor=#000000" parent="1" source="5215593056" target="5215593008" edge="1">
					<mxGeometry width="50" height="50" relative="1" as="geometry">
						<mxPoint x="400" y="440" as="sourcePoint"/>
						<mxPoint x="450" y="390" as="targetPoint"/>
					</mxGeometry>
				</mxCell>
				<mxCell id="5215593056_5215592960" value="['elts', 1]" style="endArrow=classic;html=1;strokeColor=#000000" parent="1" source="5215593056" target="5215592960" edge="1">
					<mxGeometry width="50" height="50" relative="1" as="geometry">
						<mxPoint x="400" y="440" as="sourcePoint"/>
						<mxPoint x="450" y="390" as="targetPoint"/>
					</mxGeometry>
				</mxCell>
				<mxCell id="4932162832_5215592912" value="['body', 2]" style="endArrow=classic;html=1;strokeColor=#000000" parent="1" source="4932162832" target="5215592912" edge="1">
					<mxGeometry width="50" height="50" relative="1" as="geometry">
						<mxPoint x="400" y="440" as="sourcePoint"/>
						<mxPoint x="450" y="390" as="targetPoint"/>
					</mxGeometry>
				</mxCell>
				<mxCell id="5215592912_5215592864" value="['targets', 0]" style="endArrow=classic;html=1;strokeColor=#000000" parent="1" source="5215592912" target="5215592864" edge="1">
					<mxGeometry width="50" height="50" relative="1" as="geometry">
						<mxPoint x="400" y="440" as="sourcePoint"/>
						<mxPoint x="450" y="390" as="targetPoint"/>
					</mxGeometry>
				</mxCell>
				<mxCell id="5215592912_5215592816" value="['value']" style="endArrow=classic;html=1;strokeColor=#000000" parent="1" source="5215592912" target="5215592816" edge="1">
					<mxGeometry width="50" height="50" relative="1" as="geometry">
						<mxPoint x="400" y="440" as="sourcePoint"/>
						<mxPoint x="450" y="390" as="targetPoint"/>
					</mxGeometry>
				</mxCell>
				<mxCell id="5215592816_5215592768" value="['func']" style="endArrow=classic;html=1;strokeColor=#000000" parent="1" source="5215592816" target="5215592768" edge="1">
					<mxGeometry width="50" height="50" relative="1" as="geometry">
						<mxPoint x="400" y="440" as="sourcePoint"/>
						<mxPoint x="450" y="390" as="targetPoint"/>
					</mxGeometry>
				</mxCell>
				<mxCell id="5215592816_5215592720" value="['args', 0]" style="endArrow=classic;html=1;strokeColor=#000000" parent="1" source="5215592816" target="5215592720" edge="1">
					<mxGeometry width="50" height="50" relative="1" as="geometry">
						<mxPoint x="400" y="440" as="sourcePoint"/>
						<mxPoint x="450" y="390" as="targetPoint"/>
					</mxGeometry>
				</mxCell>
				<mxCell id="5215592816_5215592672" value="['args', 1]" style="endArrow=classic;html=1;strokeColor=#000000" parent="1" source="5215592816" target="5215592672" edge="1">
					<mxGeometry width="50" height="50" relative="1" as="geometry">
						<mxPoint x="400" y="440" as="sourcePoint"/>
						<mxPoint x="450" y="390" as="targetPoint"/>
					</mxGeometry>
				</mxCell>
				<mxCell id="4932162832_5215592624" value="['body', 3]" style="endArrow=classic;html=1;strokeColor=#000000" parent="1" source="4932162832" target="5215592624" edge="1">
					<mxGeometry width="50" height="50" relative="1" as="geometry">
						<mxPoint x="400" y="440" as="sourcePoint"/>
						<mxPoint x="450" y="390" as="targetPoint"/>
					</mxGeometry>
				</mxCell>
				<mxCell id="5215592624_5215592576" value="['value']" style="endArrow=classic;html=1;strokeColor=#000000" parent="1" source="5215592624" target="5215592576" edge="1">
					<mxGeometry width="50" height="50" relative="1" as="geometry">
						<mxPoint x="400" y="440" as="sourcePoint"/>
						<mxPoint x="450" y="390" as="targetPoint"/>
					</mxGeometry>
				</mxCell>
				<mxCell id="stx_x_4932162832" value="&lt;b&gt;SyntaxToken&lt;/b&gt;&lt;br&gt;name: x&lt;br&gt;scope: main" style="whiteSpace=wrap;html=1;rounded=1;fillColor=#FFF2CC;strokeColor=#000000" parent="1" vertex="1">
					<mxGeometry x="-150" y="0.0" width="120" height="60" as="geometry"/>
				</mxCell>
				<mxCell id="stx_y_4932162832" value="&lt;b&gt;SyntaxToken&lt;/b&gt;&lt;br&gt;name: y&lt;br&gt;scope: main" style="whiteSpace=wrap;html=1;rounded=1;fillColor=#FFF2CC;strokeColor=#000000" parent="1" vertex="1">
					<mxGeometry x="-150" y="65.0" width="120" height="60" as="geometry"/>
				</mxCell>
				<mxCell id="stx_res_4932162832" value="&lt;b&gt;SyntaxToken&lt;/b&gt;&lt;br&gt;name: res&lt;br&gt;scope: main" style="whiteSpace=wrap;html=1;rounded=1;fillColor=#FFF2CC;strokeColor=#000000" parent="1" vertex="1">
					<mxGeometry x="-150" y="130.0" width="120" height="60" as="geometry"/>
				</mxCell>
				<mxCell id="stx_plus_4932162832" value="&lt;b&gt;SyntaxToken&lt;/b&gt;&lt;br&gt;name: plus&lt;br&gt;scope: main" style="whiteSpace=wrap;html=1;rounded=1;fillColor=#FFF2CC;strokeColor=#000000" parent="1" vertex="1">
					<mxGeometry x="-150" y="195.0" width="120" height="60" as="geometry"/>
				</mxCell>
				<mxCell id="stx_a_4932163168" value="&lt;b&gt;SyntaxToken&lt;/b&gt;&lt;br&gt;name: a&lt;br&gt;scope: plus" style="whiteSpace=wrap;html=1;rounded=1;fillColor=#FFF2CC;strokeColor=#000000" parent="1" vertex="1">
					<mxGeometry x="-150" y="260.0" width="120" height="60" as="geometry"/>
				</mxCell>
				<mxCell id="stx_b_4932163168" value="&lt;b&gt;SyntaxToken&lt;/b&gt;&lt;br&gt;name: b&lt;br&gt;scope: plus" style="whiteSpace=wrap;html=1;rounded=1;fillColor=#FFF2CC;strokeColor=#000000" parent="1" vertex="1">
					<mxGeometry x="-150" y="325.0" width="120" height="60" as="geometry"/>
				</mxCell>
				<mxCell id="stx_x_4932162832_5215593152" value="" style="edgeStyle=segmentEdgeStyle;endArrow=classic;html=1;rounded=1;endSize=8;startSize=8;entryX=0.25;entryY=0;entryDx=0;entryDy=0;opacity=40;shadow=0;dashed=1;jumpSize=6;strokeColor=#3333FF" parent="1" source="stx_x_4932162832" target="5215593152" edge="1">
					<mxGeometry width="50" height="50" relative="1" as="geometry">
						<mxPoint x="400" y="440" as="sourcePoint"/>
						<mxPoint x="450" y="390" as="targetPoint"/>
					</mxGeometry>
				</mxCell>
				<mxCell id="stx_x_4932162832_5215592720" value="" style="edgeStyle=segmentEdgeStyle;endArrow=classic;html=1;rounded=1;endSize=8;startSize=8;entryX=0.25;entryY=0;entryDx=0;entryDy=0;opacity=40;shadow=0;dashed=1;jumpSize=6;strokeColor=#3333FF" parent="1" source="stx_x_4932162832" target="5215592720" edge="1">
					<mxGeometry width="50" height="50" relative="1" as="geometry">
						<mxPoint x="400" y="440" as="sourcePoint"/>
						<mxPoint x="450" y="390" as="targetPoint"/>
					</mxGeometry>
				</mxCell>
				<mxCell id="stx_y_4932162832_5215593104" value="" style="edgeStyle=segmentEdgeStyle;endArrow=classic;html=1;rounded=1;endSize=8;startSize=8;entryX=0.25;entryY=0;entryDx=0;entryDy=0;opacity=40;shadow=0;dashed=1;jumpSize=6;strokeColor=#3333FF" parent="1" source="stx_y_4932162832" target="5215593104" edge="1">
					<mxGeometry width="50" height="50" relative="1" as="geometry">
						<mxPoint x="400" y="440" as="sourcePoint"/>
						<mxPoint x="450" y="390" as="targetPoint"/>
					</mxGeometry>
				</mxCell>
				<mxCell id="stx_y_4932162832_5215592672" value="" style="edgeStyle=segmentEdgeStyle;endArrow=classic;html=1;rounded=1;endSize=8;startSize=8;entryX=0.25;entryY=0;entryDx=0;entryDy=0;opacity=40;shadow=0;dashed=1;jumpSize=6;strokeColor=#3333FF" parent="1" source="stx_y_4932162832" target="5215592672" edge="1">
					<mxGeometry width="50" height="50" relative="1" as="geometry">
						<mxPoint x="400" y="440" as="sourcePoint"/>
						<mxPoint x="450" y="390" as="targetPoint"/>
					</mxGeometry>
				</mxCell>
				<mxCell id="stx_res_4932162832_5215592864" value="" style="edgeStyle=segmentEdgeStyle;endArrow=classic;html=1;rounded=1;endSize=8;startSize=8;entryX=0.25;entryY=0;entryDx=0;entryDy=0;opacity=40;shadow=0;dashed=1;jumpSize=6;strokeColor=#3333FF" parent="1" source="stx_res_4932162832" target="5215592864" edge="1">
					<mxGeometry width="50" height="50" relative="1" as="geometry">
						<mxPoint x="400" y="440" as="sourcePoint"/>
						<mxPoint x="450" y="390" as="targetPoint"/>
					</mxGeometry>
				</mxCell>
				<mxCell id="stx_res_4932162832_5215592576" value="" style="edgeStyle=segmentEdgeStyle;endArrow=classic;html=1;rounded=1;endSize=8;startSize=8;entryX=0.25;entryY=0;entryDx=0;entryDy=0;opacity=40;shadow=0;dashed=1;jumpSize=6;strokeColor=#3333FF" parent="1" source="stx_res_4932162832" target="5215592576" edge="1">
					<mxGeometry width="50" height="50" relative="1" as="geometry">
						<mxPoint x="400" y="440" as="sourcePoint"/>
						<mxPoint x="450" y="390" as="targetPoint"/>
					</mxGeometry>
				</mxCell>
				<mxCell id="stx_plus_4932162832_5215592768" value="" style="edgeStyle=segmentEdgeStyle;endArrow=classic;html=1;rounded=1;endSize=8;startSize=8;entryX=0.25;entryY=0;entryDx=0;entryDy=0;opacity=40;shadow=0;dashed=1;jumpSize=6;strokeColor=#3333FF" parent="1" source="stx_plus_4932162832" target="5215592768" edge="1">
					<mxGeometry width="50" height="50" relative="1" as="geometry">
						<mxPoint x="400" y="440" as="sourcePoint"/>
						<mxPoint x="450" y="390" as="targetPoint"/>
					</mxGeometry>
				</mxCell>
				<mxCell id="stx_a_4932163168_4932168208" value="" style="edgeStyle=segmentEdgeStyle;endArrow=classic;html=1;rounded=1;endSize=8;startSize=8;entryX=0.25;entryY=0;entryDx=0;entryDy=0;opacity=40;shadow=0;dashed=1;jumpSize=6;strokeColor=#3333FF" parent="1" source="stx_a_4932163168" target="4932168208" edge="1">
					<mxGeometry width="50" height="50" relative="1" as="geometry">
						<mxPoint x="400" y="440" as="sourcePoint"/>
						<mxPoint x="450" y="390" as="targetPoint"/>
					</mxGeometry>
				</mxCell>
				<mxCell id="stx_a_4932163168_5155008000" value="" style="edgeStyle=segmentEdgeStyle;endArrow=classic;html=1;rounded=1;endSize=8;startSize=8;entryX=0.25;entryY=0;entryDx=0;entryDy=0;opacity=40;shadow=0;dashed=1;jumpSize=6;strokeColor=#3333FF" parent="1" source="stx_a_4932163168" target="5155008000" edge="1">
					<mxGeometry width="50" height="50" relative="1" as="geometry">
						<mxPoint x="400" y="440" as="sourcePoint"/>
						<mxPoint x="450" y="390" as="targetPoint"/>
					</mxGeometry>
				</mxCell>
				<mxCell id="stx_b_4932163168_4932167920" value="" style="edgeStyle=segmentEdgeStyle;endArrow=classic;html=1;rounded=1;endSize=8;startSize=8;entryX=0.25;entryY=0;entryDx=0;entryDy=0;opacity=40;shadow=0;dashed=1;jumpSize=6;strokeColor=#3333FF" parent="1" source="stx_b_4932163168" target="4932167920" edge="1">
					<mxGeometry width="50" height="50" relative="1" as="geometry">
						<mxPoint x="400" y="440" as="sourcePoint"/>
						<mxPoint x="450" y="390" as="targetPoint"/>
					</mxGeometry>
				</mxCell>
				<mxCell id="stx_b_4932163168_5215593296" value="" style="edgeStyle=segmentEdgeStyle;endArrow=classic;html=1;rounded=1;endSize=8;startSize=8;entryX=0.25;entryY=0;entryDx=0;entryDy=0;opacity=40;shadow=0;dashed=1;jumpSize=6;strokeColor=#3333FF" parent="1" source="stx_b_4932163168" target="5215593296" edge="1">
					<mxGeometry width="50" height="50" relative="1" as="geometry">
						<mxPoint x="400" y="440" as="sourcePoint"/>
						<mxPoint x="450" y="390" as="targetPoint"/>
					</mxGeometry>
				</mxCell>
			</root>
		</mxGraphModel>
	</diagram>
</mxfile>
